HIERARCHY
ROOT Hips
{
	OFFSET -49.260769 -43.699543 87.056984
	CHANNELS 6 Xposition Yposition Zposition Zrotation Yrotation Xrotation
	JOINT Spine
	{
		OFFSET 0.000000 2.080109 8.814247
		CHANNELS 6 Xposition Yposition Zposition Zrotation Yrotation Xrotation
		JOINT Spine1
		{
			OFFSET 0.000000 0.000000 8.844139
			CHANNELS 6 Xposition Yposition Zposition Zrotation Yrotation Xrotation
			JOINT Spine2
			{
				OFFSET 0.000000 0.000000 11.682266
				CHANNELS 6 Xposition Yposition Zposition Zrotation Yrotation Xrotation
				JOINT Spine3
				{
					OFFSET 0.000000 0.000004 11.746696
					CHANNELS 6 Xposition Yposition Zposition Zrotation Yrotation Xrotation
					JOINT Neck
					{
						OFFSET 0.000000 0.000000 17.658264
						CHANNELS 6 Xposition Yposition Zposition Zrotation Yrotation Xrotation
						JOINT Neck1
						{
							OFFSET 0.000000 0.000000 5.101517
							CHANNELS 6 Xposition Yposition Zposition Zrotation Yrotation Xrotation
							JOINT Head
							{
								OFFSET 0.000000 0.000000 5.101517
								CHANNELS 6 Xposition Yposition Zposition Zrotation Yrotation Xrotation
								JOINT HeadEnd
								{
									OFFSET 0.000000 0.000000 11.655090
									CHANNELS 6 Xposition Yposition Zposition Zrotation Yrotation Xrotation
									End Site
									{
										OFFSET 0.000000 0.000000 0.100006
									}
								}
							}
						}
					}
					JOINT RightShoulder
					{
						OFFSET -2.625389 0.000000 11.175217
						CHANNELS 6 Xposition Yposition Zposition Zrotation Yrotation Xrotation
						JOINT RightArm
						{
							OFFSET 0.000000 0.000000 10.434723
							CHANNELS 6 Xposition Yposition Zposition Zrotation Yrotation Xrotation
							JOINT RightForeArm
							{
								OFFSET 0.000000 0.000004 29.628418
								CHANNELS 6 Xposition Yposition Zposition Zrotation Yrotation Xrotation
								JOINT RightHand
								{
									OFFSET 0.000000 0.000000 22.857605
									CHANNELS 6 Xposition Yposition Zposition Zrotation Yrotation Xrotation
									JOINT RightHandThumb1
									{
										OFFSET -2.867321 -2.944290 3.959564
										CHANNELS 6 Xposition Yposition Zposition Zrotation Yrotation Xrotation
										JOINT RightHandThumb2
										{
											OFFSET 0.000000 0.000000 3.350403
											CHANNELS 6 Xposition Yposition Zposition Zrotation Yrotation Xrotation
											JOINT RightHandThumb3
											{
												OFFSET 0.000000 0.000000 3.756516
												CHANNELS 6 Xposition Yposition Zposition Zrotation Yrotation Xrotation
												JOINT RightHandThumb4
												{
													OFFSET 0.000000 0.000000 3.147339
													CHANNELS 6 Xposition Yposition Zposition Zrotation Yrotation Xrotation
													End Site
													{
														OFFSET 0.000000 0.000000 0.100006
													}
												}
											}
										}
									}
									JOINT RightHandIndex1
									{
										OFFSET -0.086754 -2.345280 10.030899
										CHANNELS 6 Xposition Yposition Zposition Zrotation Yrotation Xrotation
										JOINT RightHandIndex2
										{
											OFFSET 0.000000 0.000000 4.061096
											CHANNELS 6 Xposition Yposition Zposition Zrotation Yrotation Xrotation
											JOINT RightHandIndex3
											{
												OFFSET 0.000000 0.000000 3.248871
												CHANNELS 6 Xposition Yposition Zposition Zrotation Yrotation Xrotation
												JOINT RightHandIndex4
												{
													OFFSET 0.000000 0.000000 2.639709
													CHANNELS 6 Xposition Yposition Zposition Zrotation Yrotation Xrotation
													End Site
													{
														OFFSET 0.000000 0.000000 0.100006
													}
												}
											}
										}
									}
									JOINT RightHandMiddle1
									{
										OFFSET 0.104103 -0.006767 9.502945
										CHANNELS 6 Xposition Yposition Zposition Zrotation Yrotation Xrotation
										JOINT RightHandMiddle2
										{
											OFFSET 0.000000 0.000000 4.568726
											CHANNELS 6 Xposition Yposition Zposition Zrotation Yrotation Xrotation
											JOINT RightHandMiddle3
											{
												OFFSET 0.000000 0.000000 3.654984
												CHANNELS 6 Xposition Yposition Zposition Zrotation Yrotation Xrotation
												JOINT RightHandMiddle4
												{
													OFFSET 0.000000 0.000000 2.741241
													CHANNELS 6 Xposition Yposition Zposition Zrotation Yrotation Xrotation
													End Site
													{
														OFFSET 0.000000 0.000000 0.100006
													}
												}
											}
										}
									}
									JOINT RightHandRing1
									{
										OFFSET 0.086754 2.267441 8.921707
										CHANNELS 6 Xposition Yposition Zposition Zrotation Yrotation Xrotation
										JOINT RightHandRing2
										{
											OFFSET 0.000000 0.000000 4.061096
											CHANNELS 6 Xposition Yposition Zposition Zrotation Yrotation Xrotation
											JOINT RightHandRing3
											{
												OFFSET 0.000000 0.000000 3.654984
												CHANNELS 6 Xposition Yposition Zposition Zrotation Yrotation Xrotation
												JOINT RightHandRing4
												{
													OFFSET 0.000000 0.000000 2.741241
													CHANNELS 6 Xposition Yposition Zposition Zrotation Yrotation Xrotation
													End Site
													{
														OFFSET 0.000000 0.000000 0.100006
													}
												}
											}
										}
									}
									JOINT RightHandPinky1
									{
										OFFSET -0.173504 4.467197 7.976990
										CHANNELS 6 Xposition Yposition Zposition Zrotation Yrotation Xrotation
										JOINT RightHandPinky2
										{
											OFFSET 0.000000 0.000000 3.350403
											CHANNELS 6 Xposition Yposition Zposition Zrotation Yrotation Xrotation
											JOINT RightHandPinky3
											{
												OFFSET 0.000000 0.000000 2.842758
												CHANNELS 6 Xposition Yposition Zposition Zrotation Yrotation Xrotation
												JOINT RightHandPinky4
												{
													OFFSET 0.000000 0.000000 2.639709
													CHANNELS 6 Xposition Yposition Zposition Zrotation Yrotation Xrotation
													End Site
													{
														OFFSET 0.000000 0.000000 0.100006
													}
												}
											}
										}
									}
									JOINT RightForeArmEnd
									{
										OFFSET 0.000000 0.000000 0.000000
										CHANNELS 6 Xposition Yposition Zposition Zrotation Yrotation Xrotation
										End Site
										{
											OFFSET 0.000000 0.000000 0.100006
										}
									}
								}
								JOINT RightArmEnd
								{
									OFFSET 0.000000 0.000000 0.000000
									CHANNELS 6 Xposition Yposition Zposition Zrotation Yrotation Xrotation
									End Site
									{
										OFFSET 0.000000 0.000000 0.100006
									}
								}
							}
						}
					}
					JOINT LeftShoulder
					{
						OFFSET 2.625389 0.000000 11.175217
						CHANNELS 6 Xposition Yposition Zposition Zrotation Yrotation Xrotation
						JOINT LeftArm
						{
							OFFSET 0.000000 0.000000 10.813629
							CHANNELS 6 Xposition Yposition Zposition Zrotation Yrotation Xrotation
							JOINT LeftForeArm
							{
								OFFSET 0.000000 0.000004 28.724777
								CHANNELS 6 Xposition Yposition Zposition Zrotation Yrotation Xrotation
								JOINT LeftHand
								{
									OFFSET 0.644382 0.328873 25.716171
									CHANNELS 6 Xposition Yposition Zposition Zrotation Yrotation Xrotation
									JOINT LeftHandThumb1
									{
										OFFSET 2.867325 -2.944290 3.959564
										CHANNELS 6 Xposition Yposition Zposition Zrotation Yrotation Xrotation
										JOINT LeftHandThumb2
										{
											OFFSET 0.000000 0.000000 3.350403
											CHANNELS 6 Xposition Yposition Zposition Zrotation Yrotation Xrotation
											JOINT LeftHandThumb3
											{
												OFFSET 0.000000 0.000000 3.756516
												CHANNELS 6 Xposition Yposition Zposition Zrotation Yrotation Xrotation
												JOINT LeftHandThumb4
												{
													OFFSET 0.000000 0.000000 3.100006
													CHANNELS 6 Xposition Yposition Zposition Zrotation Yrotation Xrotation
													End Site
													{
														OFFSET 0.000000 0.000000 0.100006
													}
												}
											}
										}
									}
									JOINT LeftHandIndex1
									{
										OFFSET 0.086754 -2.345280 10.030899
										CHANNELS 6 Xposition Yposition Zposition Zrotation Yrotation Xrotation
										JOINT LeftHandIndex2
										{
											OFFSET 0.000000 0.000000 4.061096
											CHANNELS 6 Xposition Yposition Zposition Zrotation Yrotation Xrotation
											JOINT LeftHandIndex3
											{
												OFFSET 0.000000 0.000000 3.248871
												CHANNELS 6 Xposition Yposition Zposition Zrotation Yrotation Xrotation
												JOINT LeftHandIndex4
												{
													OFFSET 0.000000 0.000000 2.639709
													CHANNELS 6 Xposition Yposition Zposition Zrotation Yrotation Xrotation
													End Site
													{
														OFFSET 0.000000 0.000000 0.100006
													}
												}
											}
										}
									}
									JOINT LeftHandMiddle1
									{
										OFFSET -0.104103 -0.006767 9.502945
										CHANNELS 6 Xposition Yposition Zposition Zrotation Yrotation Xrotation
										JOINT LeftHandMiddle2
										{
											OFFSET 0.000000 0.000000 4.568726
											CHANNELS 6 Xposition Yposition Zposition Zrotation Yrotation Xrotation
											JOINT LeftHandMiddle3
											{
												OFFSET 0.000000 0.000000 3.654984
												CHANNELS 6 Xposition Yposition Zposition Zrotation Yrotation Xrotation
												JOINT LeftHandMiddle4
												{
													OFFSET 0.000000 0.000000 2.741241
													CHANNELS 6 Xposition Yposition Zposition Zrotation Yrotation Xrotation
													End Site
													{
														OFFSET 0.000000 0.000000 0.100006
													}
												}
											}
										}
									}
									JOINT LeftHandRing1
									{
										OFFSET -0.086754 2.267441 8.921707
										CHANNELS 6 Xposition Yposition Zposition Zrotation Yrotation Xrotation
										JOINT LeftHandRing2
										{
											OFFSET 0.000000 0.000000 4.061096
											CHANNELS 6 Xposition Yposition Zposition Zrotation Yrotation Xrotation
											JOINT LeftHandRing3
											{
												OFFSET 0.000000 0.000000 3.654984
												CHANNELS 6 Xposition Yposition Zposition Zrotation Yrotation Xrotation
												JOINT LeftHandRing4
												{
													OFFSET 0.000000 0.000000 2.741241
													CHANNELS 6 Xposition Yposition Zposition Zrotation Yrotation Xrotation
													End Site
													{
														OFFSET 0.000000 0.000000 0.100006
													}
												}
											}
										}
									}
									JOINT LeftHandPinky1
									{
										OFFSET 0.173504 4.467197 7.976990
										CHANNELS 6 Xposition Yposition Zposition Zrotation Yrotation Xrotation
										JOINT LeftHandPinky2
										{
											OFFSET 0.000000 0.000000 3.350403
											CHANNELS 6 Xposition Yposition Zposition Zrotation Yrotation Xrotation
											JOINT LeftHandPinky3
											{
												OFFSET 0.000000 0.000000 2.842758
												CHANNELS 6 Xposition Yposition Zposition Zrotation Yrotation Xrotation
												JOINT LeftHandPinky4
												{
													OFFSET 0.000000 0.000000 2.639709
													CHANNELS 6 Xposition Yposition Zposition Zrotation Yrotation Xrotation
													End Site
													{
														OFFSET 0.000000 0.000000 0.100006
													}
												}
											}
										}
									}
									JOINT LeftForeArmEnd
									{
										OFFSET 0.000000 0.000000 0.000000
										CHANNELS 6 Xposition Yposition Zposition Zrotation Yrotation Xrotation
										End Site
										{
											OFFSET 0.000000 0.000000 0.100006
										}
									}
								}
								JOINT LeftArmEnd
								{
									OFFSET 0.000000 0.000000 0.000000
									CHANNELS 6 Xposition Yposition Zposition Zrotation Yrotation Xrotation
									End Site
									{
										OFFSET 0.000000 0.000000 0.100006
									}
								}
							}
						}
					}
				}
			}
		}
	}
	JOINT RightUpLeg
	{
		OFFSET -11.289944 0.000000 0.000000
		CHANNELS 6 Xposition Yposition Zposition Zrotation Yrotation Xrotation
		JOINT RightLeg
		{
			OFFSET 0.000000 -0.000004 -38.200321
			CHANNELS 6 Xposition Yposition Zposition Zrotation Yrotation Xrotation
			JOINT RightFoot
			{
				OFFSET 0.000000 -0.000004 -39.900856
				CHANNELS 6 Xposition Yposition Zposition Zrotation Yrotation Xrotation
				JOINT RightToeBase
				{
					OFFSET 0.000000 -15.261639 0.000002
					CHANNELS 6 Xposition Yposition Zposition Zrotation Yrotation Xrotation
					JOINT RightToeBaseEnd
					{
						OFFSET 0.000000 -7.370712 0.000000
						CHANNELS 6 Xposition Yposition Zposition Zrotation Yrotation Xrotation
						End Site
						{
							OFFSET 0.000000 0.000000 0.100000
						}
					}
				}
				JOINT RightLegEnd
				{
					OFFSET 0.000000 0.000000 0.000000
					CHANNELS 6 Xposition Yposition Zposition Zrotation Yrotation Xrotation
					End Site
					{
						OFFSET 0.000000 0.000000 0.100000
					}
				}
			}
			JOINT RightUpLegEnd
			{
				OFFSET 0.000000 0.000000 0.000000
				CHANNELS 6 Xposition Yposition Zposition Zrotation Yrotation Xrotation
				End Site
				{
					OFFSET 0.000000 0.000000 0.099998
				}
			}
		}
	}
	JOINT LeftUpLeg
	{
		OFFSET 11.315662 0.000000 0.000000
		CHANNELS 6 Xposition Yposition Zposition Zrotation Yrotation Xrotation
		JOINT LeftLeg
		{
			OFFSET 0.000000 -0.000004 -38.200321
			CHANNELS 6 Xposition Yposition Zposition Zrotation Yrotation Xrotation
			JOINT LeftFoot
			{
				OFFSET 0.000000 -0.000004 -39.900856
				CHANNELS 6 Xposition Yposition Zposition Zrotation Yrotation Xrotation
				JOINT LeftToeBase
				{
					OFFSET 0.000000 -15.261639 0.000002
					CHANNELS 6 Xposition Yposition Zposition Zrotation Yrotation Xrotation
					JOINT LeftToeBaseEnd
					{
						OFFSET 0.000000 -7.539993 0.000000
						CHANNELS 6 Xposition Yposition Zposition Zrotation Yrotation Xrotation
						End Site
						{
							OFFSET 0.000000 0.000000 0.100000
						}
					}
				}
				JOINT LeftLegEnd
				{
					OFFSET 0.000000 0.000000 0.000000
					CHANNELS 6 Xposition Yposition Zposition Zrotation Yrotation Xrotation
					End Site
					{
						OFFSET 0.000000 0.000000 0.100000
					}
				}
			}
			JOINT LeftUpLegEnd
			{
				OFFSET 0.000000 0.000000 0.000000
				CHANNELS 6 Xposition Yposition Zposition Zrotation Yrotation Xrotation
				End Site
				{
					OFFSET 0.000000 0.000000 0.099998
				}
			}
		}
	}
}
MOTION
Frames: 2
Frame Time: 0.016667
-22.527279 -35.794750 85.609276 28.111734 8.700818 -17.138565 -0.000001 2.080110 8.814245 0.606838 -1.969489 7.073770 -0.000004 0.000002 8.844136 -1.078726 -3.227832 1.400487 -0.000003 0.000004 11.682271 -4.066927 -3.098565 13.288042 0.000002 -0.000000 11.746707 -0.983680 1.621329 0.387062 0.000002 0.000005 17.658285 -3.135676 -9.640161 13.888513 0.000001 -0.000000 5.101542 -2.331309 4.467562 -5.887863 0.000000 -0.000001 5.101512 3.084830 0.495150 -24.764213 0.000001 0.000000 11.655091 -0.000001 0.000000 -0.000000 -2.625385 0.000001 11.175220 6.165040 -91.120304 -1.113956 0.000008 -0.000006 10.434729 -12.230983 -17.416284 16.605199 0.000019 -0.000019 29.628420 24.022356 -0.746863 81.750363 0.000019 -0.000001 22.857603 63.513239 2.710286 6.005124 -2.867319 -2.944284 3.959580 31.742642 -16.402131 52.841909 0.000001 -0.000003 3.350387 -10.770491 7.598567 -19.674271 0.000004 -0.000008 3.756522 -7.196791 5.677089 -13.491770 0.000000 -0.000002 3.147353 0.000000 -0.000001 -0.000000 -0.086757 -2.345275 10.030889 -10.438733 -9.432545 8.334885 -0.000005 -0.000005 4.061065 0.432471 -7.432158 1.053199 0.000008 0.000000 3.248854 -0.068230 -7.432166 1.053129 0.000009 0.000005 2.639710 0.000002 -0.000000 -0.000001 0.104117 -0.006761 9.502956 -5.482868 -10.510520 6.125142 0.000006 -0.000016 4.568712 0.471988 -7.712738 0.409315 0.000010 -0.000006 3.654980 -0.024724 -7.712964 0.416886 0.000003 -0.000007 2.741238 0.000001 -0.000002 0.000002 0.086759 2.267445 8.921680 2.543686 -11.714221 3.447859 0.000009 0.000016 4.061075 -0.965008 -8.094831 -0.504493 0.000010 0.000007 3.654972 0.032034 -8.094834 -0.500358 -0.000001 0.000003 2.741241 0.000000 0.000000 0.000001 -0.173500 4.467196 7.976982 11.268326 -11.315674 -0.385473 -0.000007 0.000008 3.350407 -1.893748 -7.751562 -1.516653 0.000003 -0.000004 2.842780 0.106868 -7.751542 -1.516749 0.000014 -0.000009 2.639709 0.000000 -0.000001 0.000001 0.000006 0.000005 -0.000015 -0.000000 0.000001 0.000001 0.000020 0.000005 0.000001 0.000000 0.000000 -0.000001 2.625387 0.000000 11.175215 -8.718771 91.331036 -1.964354 0.000016 -0.000001 10.813660 11.612635 39.804287 9.768970 0.000009 -0.000023 28.724800 -28.440754 5.346338 92.194139 0.644386 0.328871 25.716158 -49.934174 2.650535 -2.526435 2.867317 -2.944311 3.959577 -31.715956 16.574076 52.574152 -0.000009 0.000000 3.350414 11.148172 -7.773128 -20.314513 0.000007 0.000005 3.756542 7.443096 -5.826088 -13.926048 -0.000008 0.000001 3.100020 -0.000002 -0.000000 0.000002 0.086756 -2.345279 10.030924 -5.658859 14.921037 -12.310902 0.000006 0.000005 4.061121 0.330064 11.663791 -1.653660 0.000006 0.000009 3.248878 -0.168876 11.663797 -1.652913 0.000006 -0.000013 2.639708 0.000000 -0.000002 0.000000 -0.104098 -0.006781 9.502949 -0.309431 17.608168 -10.134520 0.000006 -0.000008 4.568733 0.419210 12.918860 -0.689153 0.000001 -0.000003 3.654990 -0.078220 12.918857 -0.688830 0.000004 -0.000004 2.741242 0.000000 0.000001 0.000001 -0.086748 2.267430 8.921710 9.125484 23.173145 -3.670758 -0.000004 -0.000004 4.061096 -0.863602 16.196586 1.017929 0.000003 -0.000001 3.654998 0.119077 16.196646 1.016996 -0.000005 -0.000006 2.741241 -0.000000 0.000000 0.000000 0.173510 4.467190 7.977017 19.365311 25.800275 3.622483 0.000004 0.000007 3.350441 -1.420710 18.083920 3.639158 -0.000003 0.000012 2.842772 0.593430 18.083740 3.643546 0.000010 -0.000009 2.639710 0.000000 0.000001 0.000000 0.000004 -0.000009 0.000032 -0.000000 0.000003 0.000001 0.000002 -0.000000 0.000012 -0.000000 -0.000003 0.000000 -11.289948 -0.000002 -0.000009 -4.579305 -8.191271 16.168963 -0.000003 -0.000006 -38.200310 -0.539034 0.121756 12.718451 0.000001 0.000003 -39.900856 -12.512303 5.133341 14.954665 -0.000001 -15.261635 -0.000000 -0.415856 -0.125589 -28.045317 -0.000003 -7.370706 0.000001 0.000001 -0.000001 -0.000000 -0.000000 -0.000000 -0.000001 -0.000000 -0.000001 -0.000002 0.000007 0.000005 -0.000004 0.000002 -0.000000 0.000000 11.315663 -0.000008 0.000002 4.916891 -23.568343 17.764315 -0.000000 -0.000011 -38.200317 0.931589 -0.317612 18.788851 -0.000003 -0.000002 -39.900856 6.005592 9.108418 7.908521 -0.000000 -15.261645 0.000002 1.199630 -1.461975 -23.366361 0.000000 -7.539989 -0.000000 0.000004 -0.000001 0.000000 -0.000001 0.000000 -0.000001 -0.000001 -0.000000 0.000004 0.000002 0.000000 -0.000000 -0.000000 0.000000 0.000000 
-22.923172 -35.930260 85.547462 27.985039 8.957360 -16.915921 -0.000001 2.080106 8.814256 0.509677 -2.170522 6.913967 0.000004 -0.000006 8.844131 -1.072781 -3.195522 1.557401 0.000001 -0.000002 11.682271 -4.183052 -3.246780 12.894052 0.000000 -0.000001 11.746723 -1.022134 1.602938 0.489885 -0.000003 0.000001 17.658266 -3.013324 -9.565965 14.000256 0.000003 0.000005 5.101524 -2.238632 4.469791 -5.788878 0.000000 0.000003 5.101504 3.066063 0.545566 -24.786354 0.000004 -0.000008 11.655076 0.000001 0.000001 -0.000001 -2.625398 -0.000001 11.175210 6.110268 -90.924878 -1.129633 0.000009 0.000001 10.434726 -11.553793 -17.438602 16.436995 0.000012 -0.000007 29.628412 23.854355 -0.705086 82.369588 0.000004 0.000000 22.857597 63.217567 2.727644 6.089981 -2.867338 -2.944273 3.959572 31.742560 -16.402248 52.841786 -0.000009 -0.000002 3.350399 -10.770533 7.598577 -19.674235 -0.000003 -0.000005 3.756529 -7.196765 5.677249 -13.491703 -0.000004 -0.000008 3.147337 0.000000 -0.000000 0.000002 -0.086763 -2.345263 10.030886 -10.451534 -9.500349 8.187086 0.000018 -0.000003 4.061105 0.432093 -7.464067 1.054931 0.000002 -0.000004 3.248842 -0.068434 -7.464085 1.055000 -0.000001 -0.000004 2.639693 -0.000001 -0.000000 0.000001 0.104089 -0.006766 9.502951 -5.494853 -10.574920 6.015567 -0.000005 -0.000011 4.568709 0.472153 -7.753921 0.409890 0.000001 0.000013 3.654957 -0.024531 -7.753911 0.418480 0.000001 -0.000020 2.741227 0.000001 0.000000 -0.000001 0.086747 2.267444 8.921700 2.529225 -11.795927 3.350465 0.000000 0.000017 4.061088 -0.964967 -8.158076 -0.503348 0.000014 0.000004 3.654992 0.031902 -8.158053 -0.501817 0.000015 -0.000003 2.741210 0.000001 -0.000001 0.000001 -0.173518 4.467212 7.976976 11.252733 -11.407008 -0.490765 0.000001 0.000003 3.350401 -1.892846 -7.830127 -1.532068 0.000014 -0.000009 2.842742 0.107318 -7.830119 -1.532081 0.000025 0.000000 2.639724 0.000001 -0.000000 0.000001 -0.000009 0.000004 0.000003 0.000001 0.000004 0.000001 0.000004 0.000001 0.000001 0.000000 0.000001 0.000000 2.625394 0.000001 11.175204 -8.772509 91.215599 -1.979565 -0.000019 -0.000002 10.813643 11.138128 39.413128 9.565442 -0.000020 0.000001 28.724792 -28.376629 5.319403 92.456036 0.644377 0.328875 25.716177 -49.610905 2.847043 -2.219886 2.867323 -2.944296 3.959555 -31.715960 16.574079 52.574152 -0.000013 0.000009 3.350385 11.148160 -7.773129 -20.314495 -0.000004 0.000005 3.756537 7.443102 -5.826083 -13.926057 0.000002 -0.000006 3.100007 0.000001 -0.000001 -0.000003 0.086756 -2.345266 10.030896 -5.674713 14.972036 -11.880751 0.000002 0.000001 4.061106 0.329233 11.655249 -1.653841 0.000009 0.000003 3.248879 -0.169530 11.655097 -1.653321 0.000002 -0.000000 2.639724 -0.000000 -0.000000 0.000000 -0.104097 -0.006751 9.502937 -0.311649 17.620090 -9.737885 0.000006 -0.000008 4.568708 0.418258 12.912446 -0.689700 0.000004 0.000006 3.655009 -0.078760 12.912416 -0.689470 0.000001 -0.000002 2.741242 0.000001 0.000001 0.000000 -0.086755 2.267452 8.921718 9.116664 23.095416 -3.348693 0.000002 0.000003 4.061116 -0.863813 16.159432 1.016012 0.000002 -0.000009 3.655010 0.120572 16.159492 1.018473 -0.000001 -0.000003 2.741242 -0.000000 0.000001 -0.000000 0.173521 4.467211 7.976996 19.326256 25.642058 3.847407 0.000008 -0.000008 3.350435 -1.424441 18.012138 3.624025 -0.000000 0.000004 2.842770 0.593217 18.012030 3.629475 0.000004 -0.000004 2.639707 0.000000 -0.000004 -0.000001 -0.000000 0.000010 0.000014 0.000000 -0.000002 -0.000000 -0.000002 -0.000005 0.000029 0.000002 -0.000002 0.000000 -11.289944 -0.000004 -0.000009 -4.371601 -8.868326 15.774988 0.000005 -0.000001 -38.200314 -0.515013 0.118087 12.903493 0.000002 -0.000004 -39.900856 -12.815394 5.391037 14.859462 0.000002 -15.261634 -0.000000 -0.417144 -0.149925 -28.064812 0.000004 -7.370711 0.000001 -0.000001 -0.000000 0.000000 -0.000000 -0.000003 -0.000000 0.000003 -0.000001 -0.000001 0.000001 -0.000003 -0.000008 -0.000001 0.000000 0.000001 11.315663 -0.000012 -0.000002 4.500116 -23.901950 17.414856 0.000001 -0.000007 -38.200314 0.933851 -0.322808 19.191476 -0.000002 -0.000001 -39.900860 6.424318 9.509654 7.859488 0.000001 -15.261646 0.000005 1.249039 -1.487620 -23.326882 -0.000000 -7.539985 -0.000000 -0.000002 -0.000001 0.000000 -0.000000 0.000000 0.000001 -0.000006 0.000000 0.000003 0.000002 -0.000005 0.000008 -0.000000 0.000000 -0.000000 
